<?xml version="1.0" encoding="UTF-8"?>
<!-- Created with Inkscape (http://www.inkscape.org/) -->
<svg width="234" height="136" version="1.1" viewBox="0 0 234 136" xml:space="preserve" xmlns="http://www.w3.org/2000/svg" xmlns:cc="http://creativecommons.org/ns#" xmlns:dc="http://purl.org/dc/elements/1.1/" xmlns:rdf="http://www.w3.org/1999/02/22-rdf-syntax-ns#" xmlns:xlink="http://www.w3.org/1999/xlink"><title>Logo GWT</title><g><path transform="matrix(1.3271 -.12841 -.12841 -1.3271 -49.518 61.722)" d="m195.93-50.16c-5.4033 0.48445-10.798 1.1005-16.202 1.592-1.4783 0.14303-2.9566 0.28722-4.4348 0.43143 0.18056 2.0943 0.36055 4.1887 0.53906 6.2832 0.9943 0.06495 2.0378-0.12951 3.0039 0.0957 1.1619 0.90013 0.85917 2.524 1.0716 3.8048 0.34741 4.1957 0.77831 8.3885 1.0738 12.586-0.0415 0.75113-0.0951 1.6323-0.64731 2.1911-1.008 0.15118-2.0213 0.27062-3.0312 0.41016 0.40206 1.9611 0.4227 4.2742 2.0566 5.6875 0.70494 0.61506 1.5718 1.0453 2.4883 1.2344 0.78321 8.9141 1.5664 17.828 2.3496 26.742-4.1226 0.38416 3.0032-0.27296-1.135 0.03748-1.465 0.01961-2.8845-0.6379-3.7697-1.8138-1.1875-1.497-1.1812-3.4887-1.5422-5.2779-2.0768 0.17948-4.1538 0.35886-6.2306 0.53907 0.39701 5.1047 0.78686 10.21 1.188 15.314 21.427-1.8805 20.434-1.8631 41.809-4.2724-0.52971-5.0911-1.0599-10.182-1.5879-15.273-2.0897 0.23749-4.1791 0.47425-6.2691 0.70894-0.0117 2.084 0.36867 4.4484-1.0487 6.2007-1.0339 1.5821-3.0336 1.9599-4.7861 2.0577-4.193 0.46118-3.2037 0.44084-1.3856 0.25775-1.4199-15.376-2.8398-30.753-4.2598-46.129 0.29699 0.29328 1.154-0.23133 1.6691-0.2567 1.6428-0.33066 3.4094-0.84662 4.4239-2.2883 1.6653-2.0919 1.7224-5.1057 0.72732-7.4999-1.003-2.3559-3.6511-3.4058-6.0703-3.3633zm-82.757 10.423c0.117 1.2881 0.23339 2.5763 0.34984 3.8645 0.87405 0.02702 1.7571 7.61e-4 2.626 0.05834 0.99054 1.3648 0.4555 3.1432 0.40093 4.6901-0.49388 5.4094-0.92329 10.828-1.4814 16.23-0.23663 1.326-0.68146 2.7048-1.7313 3.6124-1.067 0.28792-2.2069 0.28821-3.3013 0.46643 0.40683 2.0899 0.47138 4.513 2.1413 6.0608 0.53852 0.52431 1.1899 0.93204 1.8836 1.2183-0.56488 6.1704-1.075 12.314-1.6958 18.48-0.25366 1.7729-1.4163 3.6627-3.3321 3.9057-0.60092 0.14543-1.2018 0.29086-1.8028 0.43629 0.18396 2.1211 0.36801 4.2423 0.55247 6.3634 15.119-1.2083 30.189-2.5726 45.279-4.0987-0.21919-2.1106-0.43801-4.2212-0.65666-6.3319-0.89772-0.11972-1.8603-0.01377-2.7211-0.27036-0.93148-1.3604-0.38122-3.0958-0.39269-4.6212 0.0129-0.5875 0.17156-1.3364-0.0462-1.6767 0.3617-4.6115 0.70841-9.2239 1.0587-13.836 0.38429-0.85185 0.96405-2.1197 2.0909-1.9778 1.0734 0.12923 2.147 0.25606 3.2206 0.38436 1.7791 6.1589 3.6409 12.296 5.3811 18.466 0.17482 0.72326 0.26726 1.5931-0.18819 2.2254-0.83617 0.21219-1.6878 0.37237-2.5297 0.56528 0.23421 2.1532 0.46867 4.3065 0.70313 6.4597 5.429-0.57309 10.856-1.1661 16.282-1.7704-0.23936-2.123-0.47853-4.246-0.7187-6.369-1.4536-0.15658-3.2054 0.25401-4.3432-0.91011-1.5301-1.4108-1.7074-3.6218-2.3688-5.4844-4.2843-14.462-8.5425-28.922-12.7-43.411-0.17836-0.8249-0.43019-1.8386 0.0542-2.5802 0.83725-0.18319 1.6752-0.36331 2.5127-0.54529-0.23433-2.1526-0.46869-4.3052-0.70287-6.4577-14.672 1.5636-29.359 2.9718-44.06 4.2328 0.0789 0.87416 0.15782 1.7483 0.23672 2.6225zm23.433 2.0077c0.4974-0.07959 0.54701 0.63496 0.70298 0.96494 0.24905 1.8248-0.0567 3.6735-0.12105 5.5042l-0.40855 5.3072c-0.85549-3.1606-1.8515-6.2866-2.6158-9.4697-0.12511-0.66983-0.21147-1.4838 0.17347-2.0635 0.74718-0.1984 1.4955-0.30402 2.269-0.24312zm-4.0298 26.256c0.77415 2.8331 1.6372 5.6612 2.351 8.5015-0.46393 5.661-0.88436 11.33-1.3957 16.984-0.44465 1.6734-2.0062 2.934-3.6846 3.1588-0.6512-0.15749-1.7181 0.21721-1.9899-0.6321-0.4759-1.2635 0.0532-2.6335 0.0492-3.9376 0.90494-10.421 1.7749-20.844 2.6664-31.267zm18.915-9.2469c0.31305 1.0907 0.62532 2.1816 0.93742 3.2725 0.30523 0.40674 0.36856 1.1744 0.58069 1.72 0.36133 0.86015 0.023 0.52206-0.49641 0.12278-0.42672-0.28321-0.8919-0.50461-1.371-0.68346-0.24644-0.84674 0.46086-0.86046 0.53448-1.3051-0.0768-1.0236-0.32995-2.1881-0.18513-3.1267zm-70.976-42.307c-2.6441 0.60347-4.2768 3.653-3.4363 6.2054 0.55802 2.0872 2.625 3.6573 4.7939 3.5771 0.38174 3.1799 0.63545 6.3748 1.0063 9.5571 0.30958 0.8531-0.15736 0.75368-0.79299 0.47845-3.8156-0.90521-7.805-0.43153-11.606 0.31579-9.3879 1.9636-17.922 7.8998-22.784 16.2-3.3108 5.5617-4.9102 12.079-4.7567 18.537-0.15328 0.526-0.35502 1.1708-1.0217 1.1348-1.0706 0.1258-1.9456 0.10866-3.0181 0.21908 0.4109 1.903 0.19522 4.2002 1.6752 5.6631 0.81464 0.89426 2.0111 1.4207 3.1392 1.6771 0.95061 7.6723 4.7409 14.967 10.58 20.052 6.9915 6.1924 16.531 9.2437 25.817 8.6843 2.1452-0.06925 4.3086-0.36445 6.4608-0.51976 3.9646-0.2689 7.9599-1.0386 11.931-0.46017 1.3291 0.20281 3.0172 0.71525 3.2888 2.2418 0.20032 1.0555 0.29481 2.1294 0.4526 3.1923 2.1764-0.21541 4.3528-0.43029 6.5292-0.64557-0.8053-7.2094-1.6098-14.419-2.414-21.628-2.0942 0.20634-4.1883 0.41307-6.2824 0.62088-0.0447 1.6905 0.34626 3.4976-0.38083 5.0898-2.3663 2.631-6.0053 3.4739-9.3712 3.9565-3.7544 0.45347-7.5818 0.56708-11.333 0.04275-4.7312-0.79824-8.7487-3.964-11.415-7.8498-3.8664-5.5929-5.7941-12.334-6.437-19.05-0.52948-6.4183 0.25776-13.043 2.8614-18.968 1.7133-3.8292 4.536-7.4928 8.624-8.9204 2.292-0.76933 4.7608-0.94092 7.1628-0.82594 1.3493 0.07408 2.936 0.54595 3.3958 1.9765 0.93213 2.6295 0.80252 5.475 1.0705 8.2179 0.25 3.4851 0.68945 6.9529 1.0367 10.429-1.8767 0.1213-3.9615 0.66893-5.6642-0.4211-1.6037-0.99756-2.3761-2.8443-2.5959-4.6538-0.17186-0.53814-0.12245-1.3679-0.42992-1.7274-2.0393 0.17202-4.0784 0.34626-6.1175 0.52129 0.50779 5.0922 1.0137 10.185 1.5167 15.277 12.086-1.0231 24.16-2.1776 36.229-3.3764-1.7352-2.4197-3.9348-4.6318-4.7722-7.5686-0.6062-2.2097-0.62625-4.5285-0.95905-6.7877-1.1384-9.7934-2.2002-19.622-3.3347-29.429-0.649-2.6971-3.0101-4.4816-5.172-5.9892-3.2644-2.1162-6.793-3.9042-10.551-4.9512-0.95283-0.23758-1.9659-0.35493-2.9257-0.09483z" fill="#0c0a05"/><path transform="matrix(1.3271 -.12841 -.12841 -1.3271 -53.285 58.658)" d="m195.93-50.16c-5.4033 0.48445-10.798 1.1005-16.202 1.592-1.4783 0.14303-2.9566 0.28722-4.4348 0.43143 0.18056 2.0943 0.36055 4.1887 0.53906 6.2832 0.9943 0.06495 2.0378-0.12951 3.0039 0.0957 1.1619 0.90013 0.85917 2.524 1.0716 3.8048 0.34741 4.1957 0.77831 8.3885 1.0738 12.586-0.0415 0.75113-0.0951 1.6323-0.64731 2.1911-1.008 0.15118-2.0213 0.27062-3.0312 0.41016 0.40206 1.9611 0.4227 4.2742 2.0566 5.6875 0.70494 0.61506 1.5718 1.0453 2.4883 1.2344 0.78321 8.9141 1.5664 17.828 2.3496 26.742-4.1226 0.38416 3.0035-0.27298-1.1348 0.03746-1.465 0.01961-2.8845-0.6379-3.7697-1.8138-1.1875-1.497-1.1812-3.4887-1.5422-5.2779-2.0768 0.17948-4.1538 0.35886-6.2306 0.53907 0.39701 5.1047 0.78611 10.21 1.1872 15.314 21.427-1.8805 20.435-1.8631 41.81-4.2725-0.52971-5.0911-1.0599-10.182-1.5879-15.273-2.0897 0.23749-4.1791 0.47425-6.2691 0.70894-0.0117 2.084 0.36793 4.4485-1.0494 6.2008-1.0339 1.5821-3.0328 1.9598-4.7853 2.0576-4.193 0.46118-1.3858 0.25777-1.3858 0.25777s-2.8398-30.753-4.2598-46.129c0.29699 0.29328 1.154-0.23133 1.6691-0.2567 1.6428-0.33066 3.4094-0.84662 4.4239-2.2883 1.6653-2.0919 1.7224-5.1057 0.72732-7.4999-1.003-2.3559-3.6511-3.4058-6.0703-3.3633zm-82.399 10.741c0.117 1.2881 0.23339 2.5763 0.34984 3.8645 0.87405 0.02703 1.7571 7.62e-4 2.626 0.05834 0.99054 1.3648 0.4555 3.1432 0.40093 4.6901-0.49388 5.4094-0.92329 10.828-1.4814 16.23-0.23663 1.326-0.68146 2.7048-1.7313 3.6124-1.067 0.28792-2.2069 0.28821-3.3013 0.46643 0.40683 2.0899 0.47138 4.513 2.1413 6.0608 0.53852 0.52431 1.1899 0.93204 1.8836 1.2183-0.56488 6.1704-1.075 12.314-1.6958 18.48-0.25366 1.7729-1.4163 3.6627-3.3321 3.9057-0.60092 0.14543-1.2018 0.29086-1.8028 0.43629 0.18396 2.1211 0.36801 4.2423 0.55247 6.3634 15.119-1.2083 30.189-2.5726 45.279-4.0987-0.21919-2.1106-0.43801-4.2212-0.65666-6.3319-0.89772-0.11972-1.8603-0.01377-2.7211-0.27036-0.93148-1.3604-0.38122-3.0958-0.3927-4.6212 0.0129-0.5875 0.17157-1.3364-0.0462-1.6767 0.3617-4.6115 0.70841-9.2239 1.0587-13.836 0.38429-0.85185 0.96405-2.1197 2.0909-1.9778 1.0734 0.12923 2.147 0.25606 3.2205 0.38436 1.7791 6.1589 3.6409 12.296 5.3811 18.466 0.17483 0.72326 0.26727 1.5931-0.18818 2.2254-0.83617 0.2122-1.6878 0.37237-2.5297 0.56528 0.23421 2.1532 0.46867 4.3065 0.70313 6.4597 5.429-0.57309 10.856-1.1661 16.282-1.7704-0.23936-2.123-0.47853-4.246-0.7187-6.369-1.4536-0.15658-3.2054 0.25401-4.3432-0.91011-1.5301-1.4108-1.7074-3.6218-2.3688-5.4844-4.2843-14.462-8.5425-28.922-12.7-43.411-0.17836-0.8249-0.43019-1.8386 0.0542-2.5802 0.83725-0.18319 1.6752-0.36331 2.5127-0.54529-0.23433-2.1526-0.46869-4.3052-0.70287-6.4577-14.672 1.5636-29.359 2.9718-44.06 4.2328 0.0789 0.87416 0.15783 1.7483 0.23672 2.6225zm23.433 2.0077c0.4974-0.07959 0.54701 0.63496 0.70298 0.96494 0.24906 1.8248-0.0567 3.6735-0.12105 5.5042l-0.40855 5.3072c-0.85549-3.1606-1.8515-6.2866-2.6158-9.4697-0.12511-0.66983-0.21146-1.4838 0.17347-2.0635 0.74718-0.1984 1.4955-0.30402 2.269-0.24312zm-4.0298 26.256c0.77415 2.8331 1.6372 5.6612 2.351 8.5015-0.46393 5.661-0.88436 11.33-1.3957 16.984-0.44465 1.6734-2.0062 2.934-3.6846 3.1588-0.65121-0.15749-1.7181 0.21721-1.9899-0.6321-0.4759-1.2635 0.0532-2.6335 0.0492-3.9376 0.90493-10.421 1.7749-20.844 2.6663-31.267zm18.915-9.2469c0.31305 1.0907 0.62532 2.1816 0.93742 3.2725 0.30523 0.40674 0.36856 1.1744 0.58069 1.72 0.36133 0.86015 0.023 0.52206-0.49641 0.12278-0.42672-0.28321-0.8919-0.50461-1.371-0.68346-0.24644-0.84674 0.46086-0.86046 0.53448-1.3051-0.0768-1.0236-0.32995-2.1881-0.18513-3.1267zm-70.695-42.109c-2.6441 0.60347-4.2768 3.653-3.4363 6.2054 0.55802 2.0872 2.625 3.6573 4.7939 3.5771 0.38174 3.1799 0.63545 6.3748 1.0063 9.5571 0.30958 0.8531-0.15736 0.75368-0.79299 0.47845-3.8156-0.90521-7.805-0.43153-11.606 0.31579-9.3879 1.9636-17.922 7.8998-22.784 16.2-3.3108 5.5617-4.9102 12.079-4.7567 18.537-0.15328 0.526-0.35502 1.1708-1.0217 1.1348-1.0706 0.1258-1.9456 0.10866-3.0181 0.21908 0.4109 1.903 0.19522 4.2002 1.6752 5.6631 0.81464 0.89426 2.0111 1.4207 3.1392 1.6771 0.95061 7.6723 4.7409 14.967 10.58 20.052 6.9915 6.1924 16.531 9.2437 25.817 8.6843 2.1452-0.06925 4.3086-0.36446 6.4608-0.51976 3.9646-0.2689 7.9599-1.0386 11.931-0.46017 1.3291 0.20281 3.0172 0.71525 3.2888 2.2418 0.20033 1.0555 0.29481 2.1294 0.4526 3.1923 2.1764-0.21541 4.3528-0.4303 6.5292-0.64557-0.8053-7.2094-1.6098-14.419-2.414-21.628-2.0942 0.20634-4.1883 0.41307-6.2824 0.62088-0.0447 1.6905 0.34627 3.4976-0.38083 5.0898-2.3663 2.631-6.0053 3.4739-9.3712 3.9565-3.7544 0.45347-7.5818 0.56708-11.333 0.04275-4.7312-0.79824-8.7487-3.964-11.415-7.8498-3.8664-5.5929-5.7941-12.334-6.437-19.05-0.52948-6.4183 0.25776-13.043 2.8614-18.968 1.7133-3.8292 4.536-7.4928 8.624-8.9204 2.292-0.76933 4.7608-0.94092 7.1628-0.82594 1.3493 0.07408 2.936 0.54595 3.3958 1.9765 0.93213 2.6295 0.80252 5.475 1.0705 8.2179 0.25 3.4851 0.68945 6.9529 1.0367 10.429-1.8767 0.1213-3.9615 0.66893-5.6642-0.4211-1.6037-0.99756-2.3761-2.8443-2.5959-4.6538-0.17186-0.53814-0.12245-1.3679-0.42992-1.7274-2.0393 0.17202-4.0784 0.34626-6.1175 0.52129 0.50779 5.0922 1.0137 10.185 1.5167 15.277 12.086-1.0231 24.16-2.1776 36.229-3.3764-1.7352-2.4197-3.9348-4.6318-4.7722-7.5686-0.60619-2.2097-0.62625-4.5285-0.95905-6.7877-1.1384-9.7934-2.2002-19.622-3.3347-29.429-0.649-2.6971-3.0101-4.4816-5.172-5.9892-3.2644-2.1162-6.793-3.9042-10.551-4.9512-0.95283-0.23758-1.9659-0.35493-2.9257-0.09483z" fill="#55545f"/><path d="m168.08 19.249c-0.78195 1.1052-1.3719 2.6695-1.7672 4.6929-4.0303 20.659-7.9692 41.336-11.846 62.028-0.38167 2.0919-0.41265 3.6958-0.0944 4.8143 0.31565 1.1171 0.74193 1.9713 1.2733 2.4929 0.62544 0.61567 1.4525 0.96091 2.4078 1.0358l-0.0245 2.0271c-9.7508-0.09032-14.628-0.11219-24.38-0.11318 3e-3 -0.80972 4e-3 -1.2153 6e-3 -2.0264 0.95493-0.06652 1.7886-0.40413 2.4237-1.0129 0.53844-0.51608 0.97661-1.3679 1.3106-2.4822 0.33398-1.1143 0.32766-2.7195-0.0217-4.8144 0.036-6.9e-5 0.0534-7.93e-4 0.0894 4.71e-4 -2.1354-12.249-3.2144-18.372-5.3953-30.616-2.25 12.247-3.363 18.372-5.5677 30.623-0.36177 2.0953-0.37547 3.7011-0.049 4.8146 0.32782 1.1122 0.76086 1.9639 1.2964 2.4804 0.63238 0.6079 1.4638 0.94396 2.4194 1.0095-2e-3 0.8111-4e-3 1.2166-6e-3 2.0264-9.6811 0.01352-14.522 0.04227-24.205 0.14379-5e-3 -0.81-7e-3 -1.2156-0.0115-2.027 0.95391-0.0759 1.7839-0.42298 2.4139-1.0386 0.5333-0.5216 0.97827-1.3772 1.3324-2.4948 0.35283-1.119 0.34645-2.7229-0.0243-4.8158-1.7343-9.3093-2.6074-13.964-4.3698-23.272-0.12353-0.47129-0.30889-1.0435-0.55337-1.7178-0.12592-0.40334-0.27793-0.8236-0.46269-1.261-0.18343-0.43738-0.42881-0.85825-0.73356-1.2599-0.55002-0.93989-1.2523-1.7597-2.1056-2.4594-0.85334-0.69838-1.8847-1.0401-3.0953-1.0239-6.03e-4 -0.13477 0.02026-0.34884 0.08544-0.60938 0.04966-0.19838 0.11625-0.42285 0.17531-0.66092 0.05768-0.23679 0.148-0.49111 0.267-0.76443 0.29792-0.54321 0.76305-1.0232 1.3967-1.4385 0.63354-0.41268 1.5562-0.62576 2.7695-0.64051 0.0734-9.1e-5 0.10945-0.0015 0.18283-0.0016 1.0918-0.01235 2.0026 0.26512 2.7325 0.83109 0.72991 0.56597 1.3104 1.3228 1.7403 2.2638-0.12871-1.3494-0.52903-2.5628-1.2024-3.6364-0.67473-1.0737-1.7688-1.6044-3.285-1.587-0.12411 9.77e-4 -0.21418 0.02049-0.2727 0.05313-0.0613 0.03654-0.15258 0.05201-0.27274 0.05446-1.8941-10.115-2.8479-15.172-4.7714-25.284-0.44285-1.75-1.0536-3.1629-1.8286-4.2321-0.77495-1.0692-1.6237-1.8608-2.4614-2.3972-0.98122-0.62816-2.0351-1.0494-3.1409-1.1683-0.0089-0.81014-0.01466-1.2159-0.02223-2.026 9.9571-0.16126 14.937-0.21717 24.893-0.28639 2e-3 0.80991 4e-3 1.2169 6e-3 2.0268-1.1044 0.14532-1.9918 0.52908-2.6642 1.1352-0.60486 0.54577-1.0837 1.3775-1.4151 2.4945-0.33413 1.1183-0.25054 2.6889 0.2481 4.7116 2.5532 13.798 5.0836 27.601 7.5925 41.408 0.14508 0.76957 0.21826 1.155 0.36467 1.9247 0.18103 0.80952 0.39476 1.7896 0.63733 2.9362 0.24124 1.1465 0.5128 2.2274 0.81611 3.24 0.30202 1.0112 0.61866 1.8722 0.94868 2.5802 0.33007 0.70669 0.67648 1.0617 1.0381 1.0598 0.23885-9.5e-4 0.50928-0.25561 0.81132-0.76399 0.29931-0.50714 0.57005-1.15 0.81086-1.9287 0.24077-0.77736 0.48259-1.6227 0.7228-2.5362 0.2415-0.91209 0.45312-1.8092 0.63473-2.6874 1.7053-9.6568 2.566-14.484 4.2992-24.137-1.6565-9.3226-2.492-13.984-4.1752-23.305-0.48887-1.3513-1.1308-2.4465-1.927-3.2897-0.79499-0.84042-1.5643-1.4625-2.3-1.8632-0.86006-0.46914-1.7476-0.80317-2.6691-1.0023-8.6e-4 -0.8112-1e-3 -1.2155-4e-3 -2.0267 9.9574-0.05452 14.935-0.05979 24.892-0.02227-6e-3 0.81096-8e-3 1.2165-0.0138 2.0274-0.98258 0.13226-1.8373 0.49848-2.491 1.1066-0.55315 0.5169-1.0046 1.3656-1.3466 2.4809-0.34331 1.114-0.3371 2.6845 0.0199 4.7129-0.11074 1.13e-4 -0.16542-4.74e-4 -0.27616-3.61e-4 1.639 9.2886 2.4511 13.933 4.0633 23.225 0.35908 0.67836 0.76545 1.3397 1.2152 1.9825 0.45095 0.64556 0.97755 1.1884 1.5798 1.6298 0.60217 0.44274 1.2819 0.76547 2.0378 0.97346s1.62 0.17964 2.5926-0.08505c0.0508 0.94637-0.0419 1.8383-0.29659 2.6325-0.23803 0.73743-0.71054 1.4653-1.3824 2.1715-0.67187 0.70618-1.7347 1.2239-3.1885 1.5544-0.18246 0.06697-0.3944 0.09955-0.63582 0.09774 0.48575 2.9215 0.72927 4.383 1.2123 7.3057 0.036-6.9e-5 0.0547-7.46e-4 0.0907-8.15e-4 -1.2e-4 0.04135-8.2e-4 0.06134-9.4e-4 0.1027 0.10386 0.6894 0.15446 1.0341 0.25828 1.7248 0.17294 0.8119 0.3773 1.793 0.60911 2.9419 0.23044 1.1501 0.49197 2.2507 0.78469 3.2989 0.29134 1.0495 0.60062 1.9303 0.92388 2.6407s0.66554 1.0694 1.027 1.0714c0.48018 0.0035 0.93639-0.60217 1.3686-1.8157 0.4322-1.2136 0.84114-2.5627 1.2134-4.0452 0.44035-1.7496 0.85074-3.7098 1.2348-5.8709 0.036-6.8e-5 0.0547 5.87e-4 0.0907 5.18e-4 2.6334-13.971 5.2878-27.936 7.9662-41.897 0.32915-1.8883 0.318-3.3562-0.0359-4.4093-0.35397-1.0517-0.80407-1.8734-1.3487-2.3968-0.64143-0.61623-1.4605-0.96119-2.3784-1.0361 9e-3 -0.8122 0.0147-1.2162 0.0232-2.0271 5.9298 0.05351 8.893 0.08954 14.822 0.17636-0.0138 0.81068-0.02 1.216-0.0325 2.0268-1.1076 0.11986-2.1593 0.47383-3.1449 1.0716-0.86695 0.52456-1.6923 1.3468-2.4742 2.4507m47.714 67.631c-0.57786-0.39284-1.2302-0.61371-1.9248-0.67644 4e-3 1.0472-0.20718 1.9289-0.62592 2.6406-0.41995 0.71309-0.93514 1.3001-1.5372 1.7643-0.60488 0.46308-1.2632 0.80273-1.9724 1.0187-0.71062 0.21477-1.3553 0.37762-1.933 0.48442-0.26786-0.49785-0.46731-1.0639-0.601-1.698-0.13489-0.63262-0.20303-1.3923-0.20657-2.2733-0.10458-23.688-0.20782-47.376-0.31252-71.066-3.0274 0.03793-1.2312 0.09565 7.9505 0.22395 2.3875 0.30882 4.2164 1.012 5.485 2.1056 1.2713 1.0946 2.1989 2.256 2.787 3.4743 0.69562 1.4437 1.0916 2.9942 1.19 4.6484 0.68562 0.01135 1.0284 0.01829 1.714 0.02965 0.0292-4.0309 0.0432-6.0469 0.071-10.079 0.01-1.3539 0.0155-2.0309 0.025-3.3861-26.323-0.40538-22.629-0.4976-48.946-0.27927 0.0252 1.3545 0.0383 2.0324 0.065 3.3881 0.078 4.0312 0.11693 6.0476 0.195 10.08 0.65304-0.0069 0.98096-0.01052 1.634-0.01744 0.0771-1.6538 0.45623-3.2002 1.138-4.6405 0.5789-1.2161 1.4991-2.3687 2.763-3.4555 1.2627-1.0853 3.095-1.7757 5.494-2.0681 7.9973-0.05448-3.004-0.06765 4.9949-0.06335 0.12054 13.581 0.23976 27.162 0.36031 40.743 1.3568 0.16475 2.2971 0.81455 2.8204 1.9441 0.52321 1.1295 0.70883 2.3279 0.55683 3.5951-0.11609-0.9921-0.43455-1.8467-0.95392-2.5627-0.52082-0.71717-1.3231-1.1593-2.4081-1.3249-0.22634 4.68e-4 -0.34017 7.67e-4 -0.56531-2.21e-4 -1.0784-1.43e-4 -1.9251 0.16484-2.54 0.49627-0.61627 0.33156-1.057 0.71848-1.32 1.1578-0.10724 0.22069-0.18499 0.42781-0.23735 0.62041-0.0509 0.1938-0.11106 0.37511-0.15563 0.53749-0.0573 0.2105-0.0766 0.38517-0.0754 0.49489 1.1305-8.84e-4 2.0198 0.30154 2.6718 0.9069 0.65213 0.60668 1.142 1.2947 1.4712 2.0666 0.32921 0.77188 0.54984 1.5154 0.66457 2.2304 0.11352 0.7164 0.17225 1.1849 0.17473 1.4044 0.0656 7.5032 0.0991 11.255 0.1659 18.757 0.0152 1.7078-0.23995 3.0024-0.76551 3.8838-0.52423 0.88125-1.0816 1.5728-1.658 1.9836-0.70677 0.50374-1.5622 0.77271-2.4664 0.82806 8e-3 0.69443 0.011 1.0411 0.0179 1.7357 9.1438-0.01405 13.717 2.24e-4 22.862 0.06645 1.5308 0.06621 2.9025-0.26612 4.1163-0.99842 1.215-0.73376 1.8218-2.0356 1.8214-3.9083-2e-3 -1.3782-0.21599-2.4399-0.64319-3.1862-0.42878-0.74885-0.88394-1.2996-1.3616-1.6258m-132.75-18.984c0.09865-5.2365 2.8803-9.517 2.8803-9.517-4.8033-0.01801-7.2057-0.0204-12.009-0.01559-3.1548 0.0031-4.7326 0.0073-7.8887 0.01971-7.5416 0.02862-11.314 0.05748-18.86 0.14066-0.0029 1.3536-0.0051 2.031-0.0082 3.386-0.01002 4.0298-0.01587 6.0459-0.02589 10.076 0.64635-0.0072 0.96803-0.0097 1.6131-0.01709 0.11161-1.6514 0.52003-3.1969 1.2241-4.6381 0.59541-1.2159 1.5307-2.3674 2.8002-3.4525s3.0926-1.7753 5.4675-2.067c3.1035-0.02191 4.6561-0.02939 7.7598-0.04188-0.04616 5.2877-0.07065 7.932-0.11681 13.22-0.12918 14.43 3.337 22.873-14.438 22.181-17.012-0.66325-24.989-21.608-25.535-37.919-0.59883-17.893 6.5193-40.958 26.232-43.68 0 0 15.505-2.7304 24.079 1.6083 2.2567 1.1424 4.0627 2.5032 4.6417 3.7148 0.68468 1.4325 1.0686 2.975 1.1545 4.6279 0.68699 7.58e-4 1.0312 0.0012 1.718 0.0033 0.0598-4.03 0.08847-6.0459 0.14844-10.077 6.75e-4 -0.09807 0.0018-0.14768 0.0038-0.24557l0.04609-3.1404c0.05035-3.4208 0.07544-5.1306 0.1258-8.5514-0.7285-0.00213-1.0928-0.00254-1.8228-0.00352-0.07632 5.4263-3.8998 8.5182-16.324 8.5696-5.5912 0.02321-8.389 0.04192-13.981 0.09324-0.42538 0.0037-0.6394 0.0054-1.0649 0.01051l-0.13422 0.04974c-21.603 0.58071-41.626 16.429-41.809 40.58 1.2721 0.25716 2.4843 1.0363 2.9818 2.006 0.58335 1.1369 0.82336 2.3702 0.72187 3.6962-0.18099-0.97421-0.57529-1.8283-1.1842-2.5625-0.6045-0.72685-1.4777-1.1351-2.6143-1.2253-0.00793-1e-3 -0.014372-0.0032-0.021155-0.0028-0.20625 0.0041-0.3088 0.0068-0.51523 0.01221-1.2048 0.03128-2.1353 0.22739-2.7902 0.58981-0.65515 0.36374-1.1222 0.78023-1.4036 1.2478-0.16908 0.23479-0.28103 0.45417-0.33549 0.65548-0.054981 0.20528-0.11152 0.39154-0.16518 0.56607-0.054632 0.23357-0.081163 0.40625-0.079939 0.5207 1.031-0.02838 2.4773 0.21249 3.1823 0.63242 1.1091 0.66216 2.0878 2.7582 2.2664 3.4726 0.00794 0.03196 0.018636 0.07369 0.028012 0.11525 1.631 24.15 21.216 40.164 43.372 40.053 5.8003-0.0282 11.637-0.94192 14.322-6.2475-0.06511 6.9297-0.09683 10.393-0.1616 17.32 0 0 0.24556 5.5771-0.61254 9.1603-0.6826-1.0046-1.9217-1.5667-3.2671-1.1786-0.9923 0.2889-1.8028 1.1434-2.0685 2.1817-0.53612 2.0923 0.94558 3.9607 2.8601 3.952 0.03489 5.1e-4 0.06702-9e-3 0.10094-0.0111 3.091 0.0222 18.694-9.0528 18.772-14.21 0.22987-15.212 0.44926-30.479 0.73668-45.658" fill="#fff"/><path d="m144.24 92.669c0.0843-0.23585 0.1649-0.47851 0.23918-0.73206 0.21297-0.70763 0.3419-1.4916 0.38831-2.3572l0.52104-0.02039-0.73641-4.2178c-2.1352-12.254-3.2141-18.38-5.3962-30.628l-3.4956 0.0026c0.47807-2.6715 1.7321-9.6585 1.7321-9.6585l-0.12147-0.68202c-1.6563-9.3265-2.4917-13.992-4.1762-23.316l-0.058-0.32224-0.11073-0.30407c-0.43176-1.1919-0.97186-2.2622-1.6114-3.1972 3.1702-0.0074 6.0668-0.0097 9.4059-0.0032-0.0972 0.26075-0.1908 0.5323-0.27672 0.81346-0.20168 0.65199-0.32946 1.3653-0.38749 2.1437l-0.75247 2.54e-4 0.772 4.3818c1.6391 9.2846 2.4513 13.928 4.0623 23.214l0.10301 0.59998 0.2828 0.53292c0.42668 0.80481 0.9176 1.6039 1.455 2.3725 0.67067 0.96147 1.4767 1.7916 2.391 2.4628 0.3056 0.22553 0.62395 0.43017 0.95494 0.61657l-3.9966-0.01629 2.4437 14.714 0.0974 7.51e-4c0.11521 0.55639 0.24292 1.1746 0.378 1.8491 0.24624 1.2321 0.53357 2.4336 0.84981 3.572 0.34956 1.253 0.71842 2.2986 1.1271 3.1975 1.2125 2.6655 3.0563 3.1225 4.049 3.1574 0.40417 0.0022 0.83673-0.04399 1.2789-0.17522-0.29517 1.5666-0.59067 3.1425-0.8865 4.7278-0.49869 2.7268-0.5008 4.8761-0.0152 6.5875 0.0712 0.25332 0.14801 0.49617 0.2291 0.73249-3.756-0.02786-6.9694-0.04333-10.74-0.049m-27.701 0.07304c0.0753-0.20682 0.14827-0.42306 0.21876-0.64472 0.55076-1.7404 0.58189-3.918 0.0964-6.6581-1.7409-9.3482-2.6153-14.006-4.3776-23.317l-0.0246-0.13561-0.0353-0.13332c-0.14728-0.55484-0.35153-1.1971-0.62628-1.9592-0.15963-0.50725-0.34972-1.0209-0.56526-1.5315-0.27345-0.64733-0.63012-1.2802-1.0602-1.8744-0.23198-0.38438-0.48585-0.75352-0.75622-1.1086l5.5172-1.646c-0.18513-1.9464-0.77895-3.7283-1.7631-5.2985-0.90595-1.442-2.2317-2.4412-3.8346-2.9191-1.5685-8.3709-2.5157-13.385-4.2568-22.539l-0.0507-0.22725c-0.53195-2.1-1.2966-3.8799-2.2716-5.2937 3.1434-0.04302 5.9756-0.07429 9.1679-0.10226-0.0999 0.26199-0.19094 0.5363-0.2742 0.81755-0.52938 1.7772-0.47351 3.9471 0.17285 6.6262 2.5453 13.758 5.0691 27.52 7.57 41.29l0.37035 1.9529c0.20508 0.92243 0.41537 1.8864 0.65332 3.0128 0.2629 1.2513 0.5638 2.4466 0.89333 3.5482 0.34971 1.173 0.73599 2.2165 1.1467 3.0968 1.2271 2.63 3.0564 3.0812 4.0385 3.1157l0.16404 0.0018c0.2922-4.1e-4 0.62296-0.03549 0.97597-0.13382-0.26359 1.465-0.54207 3.0122-0.84056 4.6734-0.47232 2.7358-0.45702 4.883 0.0447 6.591 0.0739 0.25208 0.1533 0.49769 0.23838 0.73415-3.6854 0.01331-6.8453 0.03174-10.531 0.06238m91.453-0.24642c-2.6375-0.01271-5.0253-0.0201-7.6216-0.02206 0.51323-1.2995 0.75611-2.8594 0.73983-4.7306l-0.16736-18.758c-2e-3 -0.32266-0.0308-0.7887-0.21998-1.9827-0.16626-1.0261-0.47624-2.0838-0.9295-3.1411-0.066-0.1557-0.13725-0.31089-0.2108-0.46184l4.6089 0.04968c0.23788-1.9855-0.061-3.8976-0.88859-5.6808-0.57369-1.2358-1.4207-2.2228-2.4844-2.9156l-0.3356-37.815c2.1397 0.0046 4.2744 0.01239 6.4132 0.0211l0.30944 70.702c4e-3 1.165 0.10117 2.167 0.29291 3.0687 0.12325 0.5815 0.28981 1.1401 0.4935 1.6669m-123.91-76.651c-0.65803-0.45012-1.393-0.8874-2.2024-1.3115 0.77587-0.29961 1.5279-0.65342 2.2382-1.0691zm-41.559 81.331c-14.789-5.061-25.221-18.31-26.312-34.468l-0.02195-0.32691-0.11222-0.45968c-0.09525-0.38352-0.41328-1.307-0.95999-2.3329l4.7238-0.34194c0.15697-2.0408-0.22117-3.9685-1.1251-5.7307-0.5393-1.0518-1.4102-1.9734-2.4763-2.6663 1.0888-16.057 11.698-26.909 24.337-31.69-10.484 9.153-14.97 25.712-14.467 40.751 0.47727 14.233 5.8142 29.939 16.414 37.265m30.963 24.374c0.40195-3.2917 0.29858-6.7298 0.26777-7.515l0.1596-17.222-2.9201-0.74616c2.5556-3.7533 2.3975-8.8148 2.2189-14.575-0.06048-1.9199-0.12211-3.9032-0.10295-6.0318l0.11439-12.912c1.3302-0.0028 2.5997-0.0042 4.3641-0.0069 2.6653-0.0024 4.5909-0.0029 6.5979 3.78e-4 -0.50876 1.6965-0.89976 3.6759-0.94048 5.8152-0.24594 13.086-0.4441 26.239-0.64129 39.363l-0.09328 6.1757c-0.59681 1.8356-4.982 5.1932-9.0246 7.6556" fill="#d5d3d3"/></g><metadata><rdf:RDF><cc:Work rdf:about=""><dc:title>Logo GWT</dc:title></cc:Work></rdf:RDF></metadata></svg>
